<svg xmlns="http://www.w3.org/2000/svg" width="1630.45" height="678.134" viewBox="0 0 1630.45 678.134"><path fill="#DDDCDC" d="M966.604 191.86l-22.21 22.45c-1.23 1.244-1.23 3.262 0 4.507s3.23 1.245 4.46 0l22.21-22.45c1.23-1.244 1.23-3.262 0-4.507-1.232-1.245-3.23-1.245-4.46 0zM9.46 518.08l-8.536 8.63c-1.23 1.244-1.23 3.263 0 4.508 1.23 1.244 3.228 1.244 4.46 0l8.534-8.628c1.232-1.245 1.232-3.263 0-4.51-1.23-1.243-3.228-1.243-4.46 0zM84.23 659.588l-12.964 13.105c-1.23 1.244-1.23 3.263 0 4.508 1.23 1.244 3.23 1.244 4.46 0l12.964-13.105c1.23-1.244 1.23-3.263 0-4.508-1.232-1.244-3.23-1.244-4.46 0zm53.187-236.65l-7.224 7.303c-1.232 1.244-1.232 3.264 0 4.508 1.23 1.245 3.228 1.245 4.46 0l7.222-7.3c1.232-1.247 1.232-3.265 0-4.51-1.23-1.246-3.227-1.246-4.46 0zm1442.508-319.71l-33.345 33.413c-1.85 1.853-1.85 4.856 0 6.71 1.85 1.853 4.847 1.853 6.696 0l33.344-33.413c1.85-1.853 1.85-4.856 0-6.71-1.85-1.852-4.847-1.852-6.696 0zm-136.062 28.68c-1.85-1.854-4.848-1.854-6.696 0l-12.814 12.84c-1.85 1.853-1.85 4.857 0 6.71 1.85 1.853 4.847 1.853 6.695 0l12.816-12.84c1.85-1.854 1.85-4.86 0-6.71zm185.197 148.705c-1.85-1.853-4.847-1.853-6.695 0l-19.466 19.504c-1.85 1.853-1.85 4.857 0 6.71 1.85 1.852 4.848 1.852 6.696 0l19.465-19.505c1.85-1.85 1.85-4.856 0-6.708zm-179.465 52.663c-1.555-1.558-4.075-1.558-5.63 0l-5.84 5.85c-1.555 1.56-1.555 4.084 0 5.643l1.064 1.067c1.556 1.558 4.076 1.558 5.63 0l5.84-5.85c1.556-1.56 1.556-4.085 0-5.644l-1.064-1.065zM1587.635 1.39l-10.845 10.867c-1.85 1.853-1.85 4.856 0 6.71 1.85 1.852 4.847 1.852 6.695 0l10.846-10.868c1.85-1.854 1.85-4.857 0-6.71-1.85-1.853-4.847-1.853-6.695 0zM513.74 125.783c-1.036-1.047-2.715-1.047-3.75 0l-3.89 3.93c-1.035 1.047-1.035 2.744 0 3.792l.71.717c1.036 1.047 2.714 1.047 3.75 0l3.89-3.932c1.035-1.046 1.035-2.743 0-3.79l-.71-.717z"/></svg>
